<svg width="10" height="12" viewBox="0 0 10 12" fill="none" xmlns="http://www.w3.org/2000/svg">
<path d="M9.5 12H8.5V9.4785C8.4996 9.0865 8.3437 8.71067 8.06651 8.43348C7.78933 8.15629 7.4135 8.0004 7.0215 8H2.9785C2.5865 8.0004 2.21067 8.15629 1.93348 8.43348C1.65629 8.71067 1.5004 9.0865 1.5 9.4785V12H0.5V9.4785C0.500794 8.8214 0.762176 8.19145 1.22681 7.72681C1.69145 7.26218 2.3214 7.00079 2.9785 7H7.0215C7.67859 7.00079 8.30855 7.26218 8.77318 7.72681C9.23782 8.19145 9.4992 8.8214 9.5 9.4785V12Z" fill="#1252F7"/>
<path d="M5 6C4.40666 6 3.82664 5.82405 3.33329 5.49441C2.83994 5.16476 2.45543 4.69623 2.22836 4.14805C2.0013 3.59987 1.94189 2.99667 2.05765 2.41473C2.1734 1.83279 2.45912 1.29824 2.87868 0.878681C3.29824 0.459123 3.83279 0.173401 4.41473 0.0576455C4.99667 -0.0581101 5.59987 0.00129986 6.14805 0.228363C6.69623 0.455426 7.16476 0.839943 7.49441 1.33329C7.82405 1.82664 8 2.40666 8 3C7.9992 3.79541 7.68288 4.55801 7.12044 5.12044C6.558 5.68288 5.7954 5.99921 5 6ZM5 1C4.60444 1 4.21776 1.1173 3.88886 1.33706C3.55996 1.55682 3.30362 1.86918 3.15224 2.23463C3.00087 2.60009 2.96126 3.00222 3.03843 3.39018C3.1156 3.77814 3.30608 4.13451 3.58579 4.41421C3.86549 4.69392 4.22186 4.8844 4.60982 4.96157C4.99778 5.03874 5.39991 4.99913 5.76537 4.84776C6.13082 4.69638 6.44317 4.44004 6.66294 4.11114C6.8827 3.78224 7 3.39556 7 3C7 2.46957 6.78928 1.96086 6.41421 1.58579C6.03914 1.21071 5.53043 1 5 1Z" fill="#1252F7"/>
</svg>
