<svg width="40" height="42" viewBox="0 0 40 42" fill="none" xmlns="http://www.w3.org/2000/svg">
<path d="M7.7 16.8H25.2C25.5864 16.8 25.9 16.4864 25.9 16.1C25.9 15.7136 25.5864 15.4 25.2 15.4H7.7C7.3136 15.4 7 15.7136 7 16.1C7 16.4864 7.3136 16.8 7.7 16.8Z" fill="#564D4E"/>
<path d="M7.7 11.2H14.7C15.0864 11.2 15.4 10.8864 15.4 10.5C15.4 10.1136 15.0864 9.79999 14.7 9.79999H7.7C7.3136 9.79999 7 10.1136 7 10.5C7 10.8864 7.3136 11.2 7.7 11.2Z" fill="#564D4E"/>
<path d="M7.7 22.4H25.2C25.5864 22.4 25.9 22.0864 25.9 21.7C25.9 21.3136 25.5864 21 25.2 21H7.7C7.3136 21 7 21.3136 7 21.7C7 22.0864 7.3136 22.4 7.7 22.4Z" fill="#564D4E"/>
<path d="M19.6 26.6H7.7C7.3136 26.6 7 26.9136 7 27.3C7 27.6864 7.3136 28 7.7 28H19.6C19.9864 28 20.3 27.6864 20.3 27.3C20.3 26.9136 19.9864 26.6 19.6 26.6Z" fill="#564D4E"/>
<path d="M17.5 32.2H7.7C7.3136 32.2 7 32.5136 7 32.9C7 33.2864 7.3136 33.6 7.7 33.6H17.5C17.8864 33.6 18.2 33.2864 18.2 32.9C18.2 32.5136 17.8864 32.2 17.5 32.2Z" fill="#564D4E"/>
<path d="M32.9 24.0541V10.2102L22.6898 0H0V42H30.8C35.8176 42 39.9 37.9176 39.9 32.9C39.9 28.6062 36.9068 25.0061 32.9 24.0541ZM23.1 2.3898L30.5102 9.8H23.1V2.3898ZM25.9546 40.6H1.4V1.4H21.7V11.2H31.5V23.8308C31.2606 23.8105 31.0282 23.8 30.8 23.8C25.7824 23.8 21.7 27.8824 21.7 32.9C21.7 33.1793 21.7175 33.4544 21.742 33.7281C21.7476 33.7918 21.7539 33.8548 21.7609 33.9185C21.791 34.1859 21.8295 34.4505 21.882 34.7102C21.8883 34.741 21.8967 34.7711 21.903 34.8019C21.9534 35.0385 22.0143 35.2709 22.0829 35.5005C22.1004 35.5579 22.1165 35.616 22.1347 35.6727C22.2138 35.9191 22.302 36.1613 22.4007 36.3986C22.4196 36.4434 22.4406 36.4868 22.4595 36.5309C22.5498 36.7381 22.6478 36.9404 22.7528 37.1392C22.778 37.1868 22.8018 37.2351 22.8277 37.2827C22.9502 37.5046 23.0818 37.7209 23.2225 37.9316C23.2547 37.9799 23.2883 38.0261 23.3212 38.0737C23.4493 38.2585 23.5837 38.4384 23.7244 38.6127C23.751 38.6456 23.7762 38.6799 23.8035 38.7128C23.9652 38.9074 24.136 39.0936 24.3131 39.2735C24.3565 39.3176 24.4006 39.3603 24.4454 39.4037C24.6169 39.571 24.7926 39.7334 24.9767 39.8867C24.9928 39.9007 25.0082 39.9154 25.025 39.9287C25.2224 40.0911 25.4289 40.243 25.6403 40.3893C25.6914 40.425 25.7432 40.4593 25.795 40.4936C25.8489 40.5279 25.9007 40.5657 25.9546 40.6ZM30.8 40.6C26.5545 40.6 23.1 37.1455 23.1 32.9C23.1 28.6545 26.5545 25.2 30.8 25.2C31.0184 25.2 31.234 25.2147 31.4482 25.2329C31.6519 25.2525 31.8626 25.2791 32.0845 25.3162L32.3946 25.368C35.8771 26.1051 38.5 29.2012 38.5 32.9C38.5 37.1455 35.0455 40.6 30.8 40.6Z" fill="#564D4E"/>
<path d="M34.9999 32.2H31.4999V28.7C31.4999 28.3136 31.1863 28 30.7999 28C30.4135 28 30.0999 28.3136 30.0999 28.7V32.2H26.5999C26.2135 32.2 25.8999 32.5136 25.8999 32.9C25.8999 33.2864 26.2135 33.6 26.5999 33.6H30.0999V37.1C30.0999 37.4864 30.4135 37.8 30.7999 37.8C31.1863 37.8 31.4999 37.4864 31.4999 37.1V33.6H34.9999C35.3863 33.6 35.6999 33.2864 35.6999 32.9C35.6999 32.5136 35.3863 32.2 34.9999 32.2Z" fill="#564D4E"/>
</svg>
