<svg width="28" height="35" viewBox="0 0 28 35" fill="none" xmlns="http://www.w3.org/2000/svg">
<path d="M16.3106 14.2188C16.3106 13.924 16.0719 13.6852 15.7771 13.6852H11.5666C11.2718 13.6852 11.0331 13.924 11.0331 14.2188V19.7009H7.65621C7.44043 19.7009 7.24605 19.8307 7.16326 20.0304C7.08046 20.2296 7.1264 20.4593 7.27914 20.6115L13.2948 26.6271C13.3989 26.7312 13.5351 26.7836 13.6718 26.7836C13.8086 26.7836 13.9447 26.7312 14.0489 26.6271L20.0645 20.6115C20.2172 20.4593 20.2632 20.2296 20.1804 20.0304C20.0976 19.8307 19.9032 19.7009 19.6875 19.7009H16.3106V14.2188ZM18.3993 20.7679L13.6718 25.4954L8.94433 20.7679H11.5666C11.8614 20.7679 12.1001 20.5292 12.1001 20.2344V14.7523H15.2436V20.2344C15.2436 20.5292 15.4823 20.7679 15.7771 20.7679H18.3993Z" fill="#716D6D"/>
<path d="M27.1511 8.63762L18.6586 0.160234C18.5561 0.0576953 18.4089 0 18.2639 0L1.69172 0.00109375C0.789961 0.00109375 0 0.734891 0 1.63691V33.2876C0 33.7447 0.23018 34.1747 0.553821 34.4988C0.877461 34.8219 1.35953 35 1.81666 35H25.6517C26.0864 35 26.5273 34.8307 26.8349 34.5231C27.142 34.2155 27.3438 33.8069 27.3438 33.3727V9.02426C27.3438 8.87928 27.2536 8.74016 27.1511 8.63762ZM18.0925 1.15691L25.6846 8.75H18.0726C18.1196 4.18485 18.1219 2.12204 18.0925 1.15691ZM26.25 33.3727C26.25 33.5132 26.1604 33.6507 26.0614 33.7501C25.9607 33.8507 25.7943 33.9062 25.6517 33.9062H1.81666C1.6514 33.9062 1.44386 33.8419 1.32716 33.7255C1.21018 33.6083 1.09375 33.4528 1.09375 33.2876V1.63691C1.09375 1.33809 1.38884 1.09484 1.68766 1.09484L16.9766 1.09386C17.0033 2.47308 16.9884 6.61298 16.9599 9.29102C16.9583 9.43709 17.0217 9.5778 17.1245 9.68144C17.2273 9.78529 17.3738 9.84375 17.5199 9.84375H26.25V33.3727Z" fill="#716D6D"/>
</svg>
