<svg width="20" height="18" viewBox="0 0 20 18" fill="none" xmlns="http://www.w3.org/2000/svg">
<path d="M19.1666 18C18.9456 18 18.7337 17.9122 18.5774 17.7559C18.4211 17.5996 18.3333 17.3877 18.3333 17.1666C18.332 15.841 17.8048 14.57 16.8674 13.6326C15.93 12.6952 14.659 12.168 13.3333 12.1666H8.47497V13.4883C8.4749 13.8179 8.37712 14.1401 8.19398 14.4141C8.01084 14.6881 7.75056 14.9017 7.44606 15.0278C7.14156 15.1539 6.80651 15.1869 6.48325 15.1226C6.16 15.0583 5.86306 14.8997 5.62997 14.6666L0.730806 9.76748C0.262129 9.29866 -0.00115967 8.66289 -0.00115967 7.99998C-0.00115967 7.33707 0.262129 6.7013 0.730806 6.23248L5.62997 1.33332C5.86306 1.1003 6.16 0.941622 6.48325 0.877343C6.80651 0.813064 7.14156 0.846068 7.44606 0.972185C7.75056 1.0983 8.01084 1.31187 8.19398 1.58588C8.37712 1.8599 8.4749 2.18206 8.47497 2.51165V3.83331H12.5C14.4884 3.83552 16.3948 4.62641 17.8008 6.03245C19.2069 7.43849 19.9978 9.34487 20 11.3333V17.1666C20 17.3877 19.9122 17.5996 19.7559 17.7559C19.5996 17.9122 19.3877 18 19.1666 18ZM6.80831 2.51165L1.90914 7.41081C1.75291 7.56709 1.66515 7.77901 1.66515 7.99998C1.66515 8.22095 1.75291 8.43287 1.90914 8.58915L6.80831 13.4883V11.3333C6.80831 11.1123 6.8961 10.9003 7.05238 10.7441C7.20866 10.5878 7.42063 10.5 7.64164 10.5H13.3333C14.2796 10.4997 15.2151 10.7013 16.0773 11.0913C16.9396 11.4813 17.7087 12.0508 18.3333 12.7616V11.3333C18.3315 9.78676 17.7164 8.30405 16.6228 7.21047C15.5292 6.11689 14.0465 5.50175 12.5 5.49998H7.64164C7.42063 5.49998 7.20866 5.41218 7.05238 5.2559C6.8961 5.09962 6.80831 4.88766 6.80831 4.66665V2.51165Z" fill="white"/>
</svg>
