<svg width="21" height="21" viewBox="0 0 21 21" fill="none" xmlns="http://www.w3.org/2000/svg">
<path d="M19.5 3H12V1.5C12 1.10218 11.842 0.720644 11.5607 0.43934C11.2794 0.158035 10.8978 0 10.5 0H1.5C1.10218 0 0.720644 0.158035 0.43934 0.43934C0.158035 0.720644 0 1.10218 0 1.5V16.5C0 16.8978 0.158035 17.2794 0.43934 17.5607C0.720644 17.842 1.10218 18 1.5 18H9V19.5C9 19.8978 9.15804 20.2794 9.43934 20.5607C9.72064 20.842 10.1022 21 10.5 21H19.5C19.8978 21 20.2794 20.842 20.5607 20.5607C20.842 20.2794 21 19.8978 21 19.5V4.5C21 4.10218 20.842 3.72064 20.5607 3.43934C20.2794 3.15804 19.8978 3 19.5 3ZM1.5 9.75H6.1275L4.1925 11.6925L5.25 12.75L9 9L5.25 5.25L4.1925 6.3075L6.1275 8.25H1.5V1.5H10.5V16.5H1.5V9.75ZM10.5 19.5V18C10.8978 18 11.2794 17.842 11.5607 17.5607C11.842 17.2794 12 16.8978 12 16.5V4.5H19.5V11.25H14.8725L16.8075 9.3075L15.75 8.25L12 12L15.75 15.75L16.8075 14.6925L14.8725 12.75H19.5V19.5H10.5Z" fill="white"/>
</svg>
