<svg width="21" height="21" viewBox="0 0 21 21" fill="none" xmlns="http://www.w3.org/2000/svg">
<path d="M3.53996 0.253813C3.00719 0.377504 2.49143 0.812204 2.23565 1.34497L2.07794 1.6774L2.06513 10.3735C2.05652 16.1964 2.06933 19.1376 2.09915 19.2741C2.21843 19.8367 2.64053 20.3527 3.19892 20.6169L3.52715 20.7746L10.369 20.7874C14.9344 20.796 17.2788 20.7832 17.4153 20.7534C18.1016 20.6085 18.7324 19.986 18.8903 19.2998C18.9202 19.1761 18.9372 17.0958 18.9372 13.4C18.9372 7.90538 18.933 7.67941 18.8561 7.5175C18.7538 7.30435 11.7715 0.317654 11.5924 0.249613C11.4431 0.194174 3.77453 0.198374 3.53996 0.253813ZM10.1984 4.24801C10.1984 7.25753 10.2026 7.29595 10.4414 7.70944C10.6289 8.02907 10.9742 8.33609 11.3366 8.51081L11.6691 8.66852L14.6658 8.68132L17.6583 8.69414V13.933C17.6583 17.906 17.6455 19.1975 17.607 19.2828C17.4961 19.5299 17.9182 19.5171 10.4968 19.5171C3.07544 19.5171 3.49733 19.5299 3.38666 19.2828C3.3056 19.1122 3.31421 1.84813 3.39527 1.70323C3.51896 1.48147 3.42089 1.49008 6.92915 1.48588H10.1986V4.24801H10.1984ZM14.4186 7.40242C11.5796 7.41104 11.6094 7.41524 11.52 7.17227C11.4943 7.10822 11.4773 6.01285 11.4773 4.45696V1.84813L14.2481 4.61888L17.0188 7.38962L14.4186 7.40242Z" fill="white"/>
<path d="M6.27686 11.4182V12.0576H10.497H14.7172V11.4182V10.7787H10.497H6.27686V11.4182Z" fill="white"/>
<path d="M6.27686 14.1887V14.8281H10.497H14.7172V14.1887V13.5492H10.497H6.27686V14.1887Z" fill="white"/>
<path d="M6.27686 16.8742V17.5137H8.28047H10.2839V16.8742V16.2348H8.28047H6.27686V16.8742Z" fill="white"/>
</svg>
