<svg width="16" height="20" viewBox="0 0 16 20" fill="none" xmlns="http://www.w3.org/2000/svg">
<path d="M15.5 20.0001H13.8333V15.7976C13.8327 15.1442 13.5728 14.5179 13.1109 14.0559C12.6489 13.5939 12.0225 13.3341 11.3692 13.3334H4.63083C3.9775 13.3341 3.35111 13.5939 2.88913 14.0559C2.42716 14.5179 2.16733 15.1442 2.16667 15.7976V20.0001H0.5V15.7976C0.501323 14.7024 0.936959 13.6525 1.71135 12.8781C2.48575 12.1037 3.53567 11.6681 4.63083 11.6667H11.3692C12.4643 11.6681 13.5142 12.1037 14.2886 12.8781C15.063 13.6525 15.4987 14.7024 15.5 15.7976V20.0001Z" fill="white"/>
<path d="M8 10C7.01109 10 6.04439 9.70675 5.22215 9.15735C4.3999 8.60794 3.75904 7.82705 3.3806 6.91342C3.00217 5.99979 2.90315 4.99445 3.09608 4.02455C3.289 3.05464 3.76521 2.16373 4.46447 1.46447C5.16373 0.765206 6.05464 0.289002 7.02455 0.0960758C7.99445 -0.0968502 8.99979 0.00216643 9.91342 0.380604C10.827 0.759043 11.6079 1.3999 12.1573 2.22215C12.7068 3.0444 13 4.01109 13 5C12.9987 6.32568 12.4715 7.59668 11.5341 8.53407C10.5967 9.47147 9.32568 9.99868 8 10ZM8 1.66667C7.34073 1.66667 6.69626 1.86216 6.1481 2.22844C5.59994 2.59471 5.17269 3.1153 4.9204 3.72439C4.66811 4.33348 4.6021 5.0037 4.73072 5.6503C4.85933 6.2969 5.1768 6.89085 5.64298 7.35702C6.10915 7.8232 6.7031 8.14067 7.3497 8.26928C7.9963 8.3979 8.66652 8.33189 9.27561 8.0796C9.8847 7.82731 10.4053 7.40006 10.7716 6.8519C11.1378 6.30374 11.3333 5.65927 11.3333 5C11.3333 4.11595 10.9821 3.2681 10.357 2.64298C9.7319 2.01786 8.88405 1.66667 8 1.66667Z" fill="white"/>
</svg>
