<svg width="223" height="48" viewBox="0 0 223 48" fill="none" xmlns="http://www.w3.org/2000/svg">
<g filter="url(#filter0_d_318_645)">
<mask id="path-1-inside-1_318_645" fill="white">
<path fill-rule="evenodd" clip-rule="evenodd" d="M13 7C9.68629 7 7 9.68629 7 13V32H16.3847C16.4826 32.1666 16.6087 32.3247 16.765 32.4691L24.6429 39.7464C25.4092 40.4542 26.5908 40.4542 27.3571 39.7464L35.235 32.4691C35.3913 32.3247 35.5174 32.1666 35.6153 32H216V13C216 9.68629 213.314 7 210 7H13Z"/>
</mask>
<path fill-rule="evenodd" clip-rule="evenodd" d="M13 7C9.68629 7 7 9.68629 7 13V32H16.3847C16.4826 32.1666 16.6087 32.3247 16.765 32.4691L24.6429 39.7464C25.4092 40.4542 26.5908 40.4542 27.3571 39.7464L35.235 32.4691C35.3913 32.3247 35.5174 32.1666 35.6153 32H216V13C216 9.68629 213.314 7 210 7H13Z" fill="white"/>
<path d="M7 32H6V33H7V32ZM16.3847 32L17.2468 31.4933L16.9568 31H16.3847V32ZM16.765 32.4691L16.0865 33.2037H16.0865L16.765 32.4691ZM24.6429 39.7464L25.3214 39.0118L24.6429 39.7464ZM27.3571 39.7464L26.6786 39.0118L27.3571 39.7464ZM35.235 32.4691L35.9135 33.2037L35.9135 33.2037L35.235 32.4691ZM35.6153 32V31H35.0432L34.7532 31.4933L35.6153 32ZM216 32V33H217V32H216ZM8 13C8 10.2386 10.2386 8 13 8V6C9.13401 6 6 9.13401 6 13H8ZM8 32V13H6V32H8ZM16.3847 31H7V33H16.3847V31ZM17.4436 31.7346C17.3581 31.6556 17.2942 31.574 17.2468 31.4933L15.5225 32.5067C15.6709 32.7592 15.8592 32.9937 16.0865 33.2037L17.4436 31.7346ZM25.3214 39.0118L17.4436 31.7346L16.0865 33.2037L23.9643 40.4809L25.3214 39.0118ZM26.6786 39.0118C26.2954 39.3657 25.7046 39.3657 25.3214 39.0118L23.9643 40.4809C25.1138 41.5427 26.8862 41.5427 28.0357 40.4809L26.6786 39.0118ZM34.5564 31.7346L26.6786 39.0118L28.0357 40.4809L35.9135 33.2037L34.5564 31.7346ZM34.7532 31.4933C34.7058 31.574 34.6419 31.6556 34.5564 31.7346L35.9135 33.2037C36.1408 32.9937 36.3291 32.7592 36.4775 32.5067L34.7532 31.4933ZM216 31H35.6153V33H216V31ZM215 13V32H217V13H215ZM210 8C212.761 8 215 10.2386 215 13H217C217 9.13401 213.866 6 210 6V8ZM13 8H210V6H13V8Z" fill="#C4C4C4" mask="url(#path-1-inside-1_318_645)"/>
</g>
<defs>
<filter id="filter0_d_318_645" x="0" y="0" width="223" height="47.2772" filterUnits="userSpaceOnUse" color-interpolation-filters="sRGB">
<feFlood flood-opacity="0" result="BackgroundImageFix"/>
<feColorMatrix in="SourceAlpha" type="matrix" values="0 0 0 0 0 0 0 0 0 0 0 0 0 0 0 0 0 0 127 0" result="hardAlpha"/>
<feOffset/>
<feGaussianBlur stdDeviation="3.5"/>
<feComposite in2="hardAlpha" operator="out"/>
<feColorMatrix type="matrix" values="0 0 0 0 0 0 0 0 0 0 0 0 0 0 0 0 0 0 0.15 0"/>
<feBlend mode="normal" in2="BackgroundImageFix" result="effect1_dropShadow_318_645"/>
<feBlend mode="normal" in="SourceGraphic" in2="effect1_dropShadow_318_645" result="shape"/>
</filter>
</defs>
</svg>
