<svg width="20" height="20" viewBox="0 0 20 20" fill="none" xmlns="http://www.w3.org/2000/svg">
<path fill-rule="evenodd" clip-rule="evenodd" d="M10 0C8.02219 0 6.08879 0.58649 4.4443 1.6853C2.79981 2.78412 1.51809 4.34591 0.761209 6.17317C0.00433272 8.00043 -0.193701 10.0111 0.192152 11.9509C0.578004 13.8907 1.53041 15.6725 2.92894 17.0711C4.32746 18.4696 6.10929 19.422 8.0491 19.8079C9.98891 20.1937 11.9996 19.9957 13.8268 19.2388C15.6541 18.4819 17.2159 17.2002 18.3147 15.5557C19.4135 13.9112 20 11.9778 20 10C19.9971 7.34872 18.9426 4.80684 17.0679 2.9321C15.1932 1.05736 12.6513 0.00286757 10 0ZM10 18.3333C8.35183 18.3333 6.74066 17.8446 5.37025 16.9289C3.99984 16.0132 2.93174 14.7117 2.30101 13.189C1.67028 11.6663 1.50525 9.99076 1.82679 8.37425C2.14834 6.75774 2.94201 5.27288 4.10745 4.10744C5.27289 2.94201 6.75774 2.14833 8.37425 1.82679C9.99076 1.50525 11.6663 1.67027 13.189 2.301C14.7118 2.93173 16.0132 3.99984 16.9289 5.37025C17.8446 6.74066 18.3333 8.35182 18.3333 10C18.3309 12.2094 17.4522 14.3276 15.8899 15.8899C14.3276 17.4522 12.2094 18.3309 10 18.3333ZM14.5833 8.74125C14.4728 8.74125 14.3668 8.78515 14.2887 8.86329C14.2106 8.94143 14.1667 9.04741 14.1667 9.15792V11.25H12.5C12.1685 11.25 11.8505 11.3817 11.6161 11.6161C11.3817 11.8505 11.25 12.1685 11.25 12.5V14.1667H7.08333C6.75181 14.1667 6.43387 14.035 6.19945 13.8006C5.96503 13.5661 5.83333 13.2482 5.83333 12.9167V7.08333C5.83333 6.75181 5.96503 6.43387 6.19945 6.19945C6.43387 5.96503 6.75181 5.83333 7.08333 5.83333H10.8508C10.9613 5.83333 11.0673 5.78943 11.1455 5.71129C11.2236 5.63315 11.2675 5.52717 11.2675 5.41667C11.2675 5.30616 11.2236 5.20018 11.1455 5.12204C11.0673 5.0439 10.9613 5 10.8508 5H7.08333C6.531 5.00066 6.00148 5.22037 5.61093 5.61093C5.22037 6.00148 5.00066 6.531 5 7.08333V12.9167C5.00066 13.469 5.22037 13.9985 5.61093 14.3891C6.00148 14.7796 6.531 14.9993 7.08333 15H11.8096C12.0833 15.0008 12.3544 14.9473 12.6073 14.8426C12.8602 14.7379 13.0899 14.584 13.2829 14.39L14.3896 13.2825C14.5836 13.0895 14.7375 12.86 14.8423 12.6072C14.9471 12.3543 15.0007 12.0833 15 11.8096V9.15792C15 9.04741 14.9561 8.94143 14.878 8.86329C14.7998 8.78515 14.6938 8.74125 14.5833 8.74125ZM12.6938 13.8008C12.5263 13.9679 12.3144 14.0836 12.0833 14.1342V12.5C12.0833 12.3895 12.1272 12.2835 12.2054 12.2054C12.2835 12.1272 12.3895 12.0833 12.5 12.0833H14.1354C14.0839 12.314 13.9683 12.5254 13.8021 12.6933L12.6938 13.8008ZM12.7733 5.3875L7.69333 10.4675C7.49931 10.6605 7.34549 10.89 7.24078 11.1429C7.13608 11.3957 7.08256 11.6668 7.08333 11.9404V12.5C7.08333 12.6105 7.12723 12.7165 7.20537 12.7946C7.28351 12.8728 7.38949 12.9167 7.5 12.9167H8.05958C8.33323 12.9174 8.60432 12.8639 8.85715 12.7592C9.10998 12.6545 9.33952 12.5007 9.5325 12.3067L14.6125 7.22667C14.856 6.98257 14.9927 6.65186 14.9927 6.30708C14.9927 5.9623 14.856 5.6316 14.6125 5.3875C14.3649 5.15079 14.0355 5.01869 13.6929 5.01869C13.3503 5.01869 13.021 5.15079 12.7733 5.3875ZM14.0233 6.6375L8.94333 11.7175C8.70839 11.951 8.39084 12.0825 8.05958 12.0833H7.91667V11.9404C7.91753 11.6092 8.04899 11.2916 8.2825 11.0567L13.3625 5.97667C13.4515 5.89165 13.5698 5.84421 13.6929 5.84421C13.816 5.84421 13.9343 5.89165 14.0233 5.97667C14.1108 6.06438 14.1599 6.1832 14.1599 6.30708C14.1599 6.43096 14.1108 6.54979 14.0233 6.6375Z" fill="white"/>
</svg>
