<svg width="41" height="40" viewBox="0 0 41 40" fill="none" xmlns="http://www.w3.org/2000/svg">
<path d="M9.39453 36.7533L9.33887 38.4642H8.51855V37.4359H8.16992V36.7533H9.39453ZM5.33691 37.4359V33.1703H6.21289V36.7504H7.92969V33.1703H8.81152V37.4359H5.33691ZM12.465 33.1703H13.2091L14.3048 36.3021L15.4005 33.1703H16.1446L14.6036 37.4359H14.006L12.465 33.1703ZM12.0636 33.1703H12.8048L12.9396 36.223V37.4359H12.0636V33.1703ZM15.8048 33.1703H16.5489V37.4359H15.67V36.223L15.8048 33.1703ZM21.2366 33.8998L20.0764 37.4359H19.1418L20.7268 33.1703H21.3215L21.2366 33.8998ZM22.2004 37.4359L21.0373 33.8998L20.9436 33.1703H21.5442L23.1379 37.4359H22.2004ZM22.1477 35.848V36.5365H19.8948V35.848H22.1477ZM29.138 33.1703V37.4359H28.2591V33.8588H26.5453V37.4359H25.6664V33.1703H29.138ZM35.5102 33.1703V37.4359H34.6313V33.8588H32.9175V37.4359H32.0386V33.1703H35.5102Z" fill="white"/>
<mask id="path-2-inside-1_202_338" fill="white">
<path fill-rule="evenodd" clip-rule="evenodd" d="M15.75 26.4451C15.75 25.8928 15.3023 25.4451 14.75 25.4451H2.66285C1.1922 25.4451 0 26.6373 0 28.1079C0 29.5786 1.1922 30.7708 2.66285 30.7708H39.5192C40.0715 30.7708 40.5192 30.3231 40.5192 29.7708C40.5192 29.2185 40.0715 28.7708 39.5192 28.7708H2.66285C2.29677 28.7708 2 28.474 2 28.1079C2 27.7418 2.29677 27.4451 2.66285 27.4451H14.75C15.3023 27.4451 15.75 26.9974 15.75 26.4451Z"/>
</mask>
<path fill-rule="evenodd" clip-rule="evenodd" d="M15.75 26.4451C15.75 25.8928 15.3023 25.4451 14.75 25.4451H2.66285C1.1922 25.4451 0 26.6373 0 28.1079C0 29.5786 1.1922 30.7708 2.66285 30.7708H39.5192C40.0715 30.7708 40.5192 30.3231 40.5192 29.7708C40.5192 29.2185 40.0715 28.7708 39.5192 28.7708H2.66285C2.29677 28.7708 2 28.474 2 28.1079C2 27.7418 2.29677 27.4451 2.66285 27.4451H14.75C15.3023 27.4451 15.75 26.9974 15.75 26.4451Z" fill="white"/>
<path d="M14.75 16.4451H2.66285V34.4451H14.75V16.4451ZM2.66285 16.4451C-3.77837 16.4451 -9 21.6667 -9 28.1079H9C9 31.6078 6.16276 34.4451 2.66285 34.4451V16.4451ZM-9 28.1079C-9 34.5491 -3.77838 39.7708 2.66285 39.7708V21.7708C6.16278 21.7708 9 24.608 9 28.1079H-9ZM2.66285 39.7708H39.5192V21.7708H2.66285V39.7708ZM39.5192 39.7708C45.0421 39.7708 49.5192 35.2936 49.5192 29.7708H31.5192C31.5192 25.3525 35.101 21.7708 39.5192 21.7708V39.7708ZM49.5192 29.7708C49.5192 24.2479 45.0421 19.7708 39.5192 19.7708V37.7708C35.101 37.7708 31.5192 34.1891 31.5192 29.7708H49.5192ZM39.5192 19.7708H2.66285V37.7708H39.5192V19.7708ZM2.66285 19.7708C7.26733 19.7708 11 23.5034 11 28.1079H-7C-7 33.4446 -2.6738 37.7708 2.66285 37.7708V19.7708ZM11 28.1079C11 32.7124 7.26733 36.4451 2.66285 36.4451V18.4451C-2.67379 18.4451 -7 22.7713 -7 28.1079H11ZM2.66285 36.4451H14.75V18.4451H2.66285V36.4451ZM14.75 36.4451C20.2729 36.4451 24.75 31.9679 24.75 26.4451H6.75001C6.75001 22.0268 10.3317 18.4451 14.75 18.4451V36.4451ZM14.75 34.4451C10.3317 34.4451 6.75001 30.8633 6.75001 26.4451H24.75C24.75 20.9222 20.2729 16.4451 14.75 16.4451V34.4451Z" fill="white" mask="url(#path-2-inside-1_202_338)"/>
<path fill-rule="evenodd" clip-rule="evenodd" d="M31.1838 2H10.6952C7.93377 2 5.69519 4.23858 5.69519 7.00001V19.6285C5.69519 20.2585 5.81169 20.8612 6.02432 21.4164C6.29095 22.1125 5.84193 23.0781 5.09644 23.0781C4.79134 23.0781 4.50601 22.9159 4.37457 22.6406C3.93903 21.7283 3.69519 20.7069 3.69519 19.6285V7.00001C3.69519 3.13401 6.8292 0 10.6952 0H31.1838C35.0498 0 38.1838 3.13401 38.1838 7V19.6285C38.1838 23.4945 35.0498 26.6285 31.1838 26.6285H26.8664C26.3142 26.6285 25.8664 26.1808 25.8664 25.6285C25.8664 25.0762 26.3142 24.6285 26.8664 24.6285H31.1838C33.9452 24.6285 36.1838 22.3899 36.1838 19.6285V7C36.1838 4.23858 33.9452 2 31.1838 2Z" fill="white"/>
<path fill-rule="evenodd" clip-rule="evenodd" d="M34.8158 6.88965H31.3504V22.8308H34.8158V6.88965ZM26.4987 11.0481H29.9641V22.8307H26.4987V11.0481ZM25.1125 14.5137H21.6471V22.8308H25.1125V14.5137ZM16.7954 17.9791H20.2608V22.8308H16.7954V17.9791ZM15.4093 19.3652H11.9438V22.8307H15.4093V19.3652ZM10.5576 20.7514H7.0921V22.8307H10.5576V20.7514Z" fill="url(#paint0_linear_202_338)"/>
<path d="M26.3547 5.4667L28.793 7.92779L25.77 9.80529L22.7469 11.6828L19.7605 13.2891L16.774 14.8955L13.824 16.2306L9.12172 17.7224L9.15826 17.4512L11.0203 16.4811L13.6563 14.9061L15.9418 13.3624L18.6144 11.5162L20.8999 9.97254L22.835 8.46015L26.3547 5.4667Z" fill="url(#paint1_linear_202_338)"/>
<path d="M30.0794 3.83953L30.0507 9.03795L24.1174 4.80076L30.0794 3.83953Z" fill="white"/>
<defs>
<linearGradient id="paint0_linear_202_338" x1="23.9396" y1="6.89022" x2="24.1745" y2="26.4349" gradientUnits="userSpaceOnUse">
<stop offset="0.9999" stop-color="white"/>
<stop offset="1" stop-color="#FF3434" stop-opacity="0"/>
</linearGradient>
<linearGradient id="paint1_linear_202_338" x1="29.351" y1="3.97789" x2="9.13299" y2="25.3795" gradientUnits="userSpaceOnUse">
<stop offset="0.9999" stop-color="white"/>
<stop offset="1" stop-color="#FF3434" stop-opacity="0"/>
</linearGradient>
</defs>
</svg>
