<svg width="20" height="20" viewBox="0 0 20 20" fill="none" xmlns="http://www.w3.org/2000/svg">
<path d="M18.8033 0.672363C18.8033 0.300918 18.5018 0 18.1309 0H4.64435C4.27347 0 3.97198 0.300918 3.97198 0.672363V6.40711H5.31671V1.34473H17.4585V15.566H15.0404C14.6693 15.566 14.3681 15.8667 14.3681 16.2384V18.6554H5.31671V13.6349H3.97198V19.3276C3.97198 19.6991 4.27347 20 4.64435 20H15.0404C15.2261 20 15.3942 19.9244 15.5156 19.8029L15.5163 19.8023L18.6056 16.7143L18.6062 16.7136C18.7279 16.5922 18.8033 16.4241 18.8033 16.2384V0.672363H18.8033Z" fill="white"/>
<path d="M6.99574 13.2364C6.99574 13.4739 7.13882 13.6887 7.35877 13.7794C7.43169 13.8095 7.50796 13.824 7.58399 13.824C7.73758 13.824 7.88806 13.7644 8.0002 13.652L11.2149 10.4366C11.3252 10.3263 11.3877 10.1768 11.3877 10.021C11.3877 9.86471 11.3252 9.71517 11.2149 9.60484L8.0002 6.39015C7.88741 6.27712 7.73697 6.21747 7.58399 6.21747C7.50792 6.21747 7.43165 6.23199 7.35877 6.26199C7.13882 6.35339 6.99574 6.56813 6.99574 6.80572V7.75186H1.78498C1.46057 7.75186 1.19666 8.01505 1.19666 8.34015V11.7019C1.19666 12.0269 1.46053 12.2903 1.78498 12.2903H6.99574V13.2364Z" fill="white"/>
</svg>
