<svg width="25" height="25" viewBox="0 0 25 25" fill="none" xmlns="http://www.w3.org/2000/svg">
<g clip-path="url(#clip0_17_382)">
<path d="M8.33331 12.5C8.33253 11.7375 8.61121 11.0011 9.11665 10.4302C9.41977 10.0896 9.71457 9.76668 9.92602 9.55522L12.8677 6.56251C13.0637 6.37834 13.3234 6.27713 13.5924 6.28009C13.8614 6.28305 14.1187 6.38994 14.3107 6.57838C14.5026 6.76682 14.6142 7.02221 14.6221 7.29108C14.6301 7.55994 14.5336 7.82145 14.3531 8.02084L11.4062 11.0208C11.2114 11.2167 10.9469 11.5083 10.6771 11.8115C10.5092 12.0018 10.4166 12.2468 10.4166 12.5005C10.4166 12.7543 10.5092 12.9993 10.6771 13.1896C10.9458 13.4917 11.2104 13.7833 11.3989 13.9729L14.3531 16.9792C14.5336 17.1786 14.6301 17.4401 14.6221 17.7089C14.6142 17.9778 14.5026 18.2332 14.3107 18.4216C14.1187 18.6101 13.8614 18.717 13.5924 18.7199C13.3234 18.7229 13.0637 18.6217 12.8677 18.4375L9.92081 15.4396C9.71248 15.2313 9.42081 14.9115 9.11977 14.5719C8.61248 14.001 8.33259 13.2637 8.33331 12.5Z" fill="white"/>
<path d="M24.9999 12.4999C24.9999 10.0276 24.2668 7.61087 22.8933 5.55525C21.5197 3.49964 19.5675 1.89748 17.2834 0.951389C14.9993 0.005294 12.486 -0.242248 10.0613 0.240068C7.63649 0.722383 5.4092 1.91289 3.66105 3.66105C1.91289 5.4092 0.722383 7.63649 0.240068 10.0613C-0.242248 12.486 0.005294 14.9993 0.951389 17.2834C1.89748 19.5675 3.49964 21.5197 5.55525 22.8933C7.61087 24.2668 10.0276 24.9999 12.4999 24.9999C15.814 24.9963 18.9913 23.6782 21.3348 21.3348C23.6782 18.9913 24.9963 15.814 24.9999 12.4999ZM2.08322 12.4999C2.08322 10.4397 2.69414 8.4257 3.83874 6.71269C4.98334 4.99968 6.6102 3.66455 8.5136 2.87614C10.417 2.08773 12.5114 1.88144 14.5321 2.28337C16.5527 2.6853 18.4088 3.67739 19.8656 5.13419C21.3224 6.59098 22.3145 8.44706 22.7164 10.4677C23.1183 12.4883 22.912 14.5828 22.1236 16.4862C21.3352 18.3896 20.0001 20.0164 18.2871 21.161C16.5741 22.3056 14.5601 22.9165 12.4999 22.9165C9.73814 22.9135 7.09038 21.8151 5.13754 19.8622C3.18469 17.9094 2.08625 15.2616 2.08322 12.4999Z" fill="white"/>
</g>
<defs>
<clipPath id="clip0_17_382">
<rect width="25" height="25" fill="white"/>
</clipPath>
</defs>
</svg>
