<svg width="25" height="25" viewBox="0 0 25 25" fill="none" xmlns="http://www.w3.org/2000/svg">
<g clip-path="url(#clip0_17_532)">
<path d="M0 12.5C0 14.9723 0.733112 17.389 2.10663 19.4446C3.48015 21.5002 5.43238 23.1024 7.71646 24.0485C10.0005 24.9946 12.5139 25.2421 14.9386 24.7598C17.3634 24.2775 19.5907 23.087 21.3388 21.3388C23.087 19.5907 24.2775 17.3634 24.7598 14.9386C25.2421 12.5139 24.9946 10.0005 24.0485 7.71646C23.1024 5.43238 21.5002 3.48015 19.4446 2.10663C17.389 0.733112 14.9723 0 12.5 0C9.18589 0.00358446 6.00855 1.3217 3.66512 3.66512C1.3217 6.00855 0.00358446 9.18589 0 12.5H0ZM22.9167 12.5C22.9167 14.5602 22.3057 16.5742 21.1611 18.2872C20.0165 20.0002 18.3897 21.3353 16.4863 22.1237C14.5829 22.9122 12.4884 23.1184 10.4678 22.7165C8.44718 22.3146 6.5911 21.3225 5.1343 19.8657C3.67751 18.4089 2.68542 16.5528 2.28349 14.5322C1.88156 12.5116 2.08784 10.4171 2.87626 8.51371C3.66467 6.61032 4.9998 4.98346 6.71281 3.83886C8.42582 2.69426 10.4398 2.08333 12.5 2.08333C15.2617 2.08637 17.9095 3.18481 19.8623 5.13765C21.8152 7.0905 22.9136 9.73826 22.9167 12.5Z" fill="white"/>
<path d="M16.6667 12.5C16.6674 13.2625 16.3888 13.9989 15.8833 14.5698C15.5802 14.9104 15.2854 15.2333 15.0739 15.4448L12.1323 18.4375C12.0381 18.5415 11.9238 18.6255 11.7964 18.6842C11.669 18.743 11.531 18.7754 11.3907 18.7796C11.2504 18.7837 11.1108 18.7594 10.9801 18.7082C10.8494 18.657 10.7305 18.58 10.6303 18.4817C10.5302 18.3834 10.4509 18.2658 10.3974 18.1361C10.3438 18.0064 10.3169 17.8672 10.3185 17.7269C10.32 17.5866 10.3499 17.448 10.4063 17.3195C10.4628 17.191 10.5446 17.0753 10.6469 16.9792L13.5937 13.9792C13.7885 13.7833 14.0531 13.4917 14.3229 13.1885C14.4908 12.9982 14.5834 12.7532 14.5834 12.4995C14.5834 12.2457 14.4908 12.0007 14.3229 11.8104C14.0542 11.5083 13.7896 11.2167 13.601 11.0271L10.6469 8.02082C10.5446 7.92474 10.4628 7.80897 10.4063 7.68048C10.3499 7.55199 10.32 7.41342 10.3185 7.27309C10.3169 7.13277 10.3438 6.99358 10.3974 6.86387C10.4509 6.73417 10.5302 6.61664 10.6303 6.51832C10.7305 6.42001 10.8494 6.34294 10.9801 6.29175C11.1108 6.24056 11.2504 6.2163 11.3907 6.22042C11.531 6.22455 11.669 6.25697 11.7964 6.31575C11.9238 6.37454 12.0381 6.45846 12.1323 6.56249L15.0792 9.56145C15.2875 9.76978 15.5792 10.0896 15.8802 10.4292C16.3873 10.9997 16.6671 11.7367 16.6667 12.5Z" fill="white"/>
</g>
<defs>
<clipPath id="clip0_17_532">
<rect width="25" height="25" fill="white"/>
</clipPath>
</defs>
</svg>
