<svg width="18" height="20" viewBox="0 0 18 20" fill="none" xmlns="http://www.w3.org/2000/svg">
<path d="M13.1667 11.6666C13.1667 11.8876 13.0789 12.0996 12.9226 12.2559C12.7663 12.4122 12.5544 12.5 12.3334 12.5H5.66669C5.44567 12.5 5.23371 12.4122 5.07743 12.2559C4.92115 12.0996 4.83335 11.8876 4.83335 11.6666C4.83335 11.4456 4.92115 11.2336 5.07743 11.0774C5.23371 10.9211 5.44567 10.8333 5.66669 10.8333H12.3334C12.5544 10.8333 12.7663 10.9211 12.9226 11.0774C13.0789 11.2336 13.1667 11.4456 13.1667 11.6666ZM9.83335 14.1666H5.66669C5.44567 14.1666 5.23371 14.2544 5.07743 14.4107C4.92115 14.567 4.83335 14.7789 4.83335 15C4.83335 15.221 4.92115 15.4329 5.07743 15.5892C5.23371 15.7455 5.44567 15.8333 5.66669 15.8333H9.83335C10.0544 15.8333 10.2663 15.7455 10.4226 15.5892C10.5789 15.4329 10.6667 15.221 10.6667 15C10.6667 14.7789 10.5789 14.567 10.4226 14.4107C10.2663 14.2544 10.0544 14.1666 9.83335 14.1666ZM17.3334 8.73746V15.8333C17.332 16.938 16.8926 17.997 16.1115 18.7781C15.3304 19.5592 14.2714 19.9986 13.1667 20H4.83335C3.72869 19.9986 2.66965 19.5592 1.88854 18.7781C1.10742 17.997 0.66801 16.938 0.666687 15.8333V4.16662C0.66801 3.06196 1.10742 2.00292 1.88854 1.22181C2.66965 0.440693 3.72869 0.00128139 4.83335 -4.18279e-05H8.59585C9.3622 -0.00201427 10.1213 0.147948 10.8294 0.441174C11.5374 0.7344 12.1803 1.16507 12.7209 1.70829L15.6242 4.61329C16.1677 5.15349 16.5987 5.79617 16.892 6.5041C17.1854 7.21203 17.3354 7.97114 17.3334 8.73746ZM11.5425 2.88662C11.2803 2.63259 10.9858 2.41406 10.6667 2.23662V5.83329C10.6667 6.0543 10.7545 6.26627 10.9108 6.42255C11.067 6.57883 11.279 6.66662 11.5 6.66662H15.0967C14.9192 6.34762 14.7003 6.05341 14.4459 5.79162L11.5425 2.88662ZM15.6667 8.73746C15.6667 8.59996 15.64 8.46829 15.6275 8.33329H11.5C10.837 8.33329 10.2011 8.0699 9.73225 7.60106C9.26341 7.13222 9.00002 6.49633 9.00002 5.83329V1.70579C8.86502 1.69329 8.73252 1.66662 8.59585 1.66662H4.83335C4.17031 1.66662 3.53443 1.93002 3.06559 2.39886C2.59675 2.8677 2.33335 3.50358 2.33335 4.16662V15.8333C2.33335 16.4963 2.59675 17.1322 3.06559 17.6011C3.53443 18.0699 4.17031 18.3333 4.83335 18.3333H13.1667C13.8297 18.3333 14.4656 18.0699 14.9345 17.6011C15.4033 17.1322 15.6667 16.4963 15.6667 15.8333V8.73746Z" fill="white"/>
</svg>
