<svg width="25" height="25" viewBox="0 0 25 25" fill="none" xmlns="http://www.w3.org/2000/svg">
<g clip-path="url(#clip0_74_222)">
<path d="M12.5 25C14.9723 25 17.389 24.2669 19.4446 22.8934C21.5002 21.5199 23.1024 19.5676 24.0485 17.2835C24.9946 14.9995 25.2421 12.4861 24.7598 10.0614C24.2775 7.63661 23.087 5.40932 21.3388 3.66116C19.5907 1.91301 17.3634 0.722498 14.9386 0.240183C12.5139 -0.242132 10.0005 0.00540936 7.71646 0.951506C5.43238 1.8976 3.48015 3.49976 2.10663 5.55537C0.733112 7.61098 1.78543e-07 10.0277 1.49061e-07 12.5C0.00358457 15.8141 1.3217 18.9914 3.66512 21.3349C6.00855 23.6783 9.18589 24.9964 12.5 25V25ZM12.5 2.08333C14.5602 2.08333 16.5742 2.69426 18.2872 3.83886C20.0002 4.98346 21.3353 6.61032 22.1237 8.51371C22.9122 10.4171 23.1184 12.5116 22.7165 14.5322C22.3146 16.5528 21.3225 18.4089 19.8657 19.8657C18.4089 21.3225 16.5528 22.3146 14.5322 22.7165C12.5116 23.1184 10.4171 22.9122 8.51371 22.1237C6.61032 21.3353 4.98346 20.0002 3.83886 18.2872C2.69426 16.5742 2.08333 14.5602 2.08333 12.5C2.08637 9.73826 3.18481 7.0905 5.13765 5.13765C7.0905 3.18481 9.73826 2.08636 12.5 2.08333Z" fill="#564D4E"/>
<path d="M12.5 8.3334C13.2625 8.33262 13.9989 8.6113 14.5698 9.11674C14.9104 9.41987 15.2333 9.71466 15.4448 9.92612L18.4375 12.8678C18.5415 12.962 18.6255 13.0762 18.6842 13.2037C18.743 13.3311 18.7754 13.4691 18.7796 13.6094C18.7837 13.7496 18.7594 13.8893 18.7082 14.02C18.657 14.1506 18.58 14.2696 18.4817 14.3697C18.3834 14.4699 18.2658 14.5491 18.1361 14.6027C18.0064 14.6563 17.8672 14.6831 17.7269 14.6816C17.5866 14.68 17.448 14.6502 17.3195 14.5937C17.191 14.5373 17.0753 14.4555 16.9792 14.3532L13.9792 11.4063C13.7833 11.2115 13.4917 10.947 13.1885 10.6772C12.9982 10.5093 12.7532 10.4167 12.4995 10.4167C12.2457 10.4167 12.0007 10.5093 11.8104 10.6772C11.5083 10.9459 11.2167 11.2105 11.0271 11.399L8.02082 14.3532C7.92474 14.4555 7.80897 14.5373 7.68048 14.5937C7.55199 14.6502 7.41342 14.68 7.27309 14.6816C7.13277 14.6831 6.99358 14.6563 6.86387 14.6027C6.73417 14.5491 6.61664 14.4699 6.51832 14.3697C6.42001 14.2696 6.34294 14.1506 6.29175 14.02C6.24056 13.8893 6.2163 13.7496 6.22042 13.6094C6.22455 13.4691 6.25697 13.3311 6.31575 13.2037C6.37454 13.0762 6.45846 12.962 6.56249 12.8678L9.56145 9.92091C9.76978 9.71257 10.0896 9.42091 10.4292 9.11986C10.9997 8.61281 11.7367 8.33294 12.5 8.3334Z" fill="#564D4E"/>
</g>
<defs>
<clipPath id="clip0_74_222">
<rect width="25" height="25" fill="white" transform="translate(0 25) rotate(-90)"/>
</clipPath>
</defs>
</svg>
