<svg width="25" height="25" viewBox="0 0 25 25" fill="none" xmlns="http://www.w3.org/2000/svg">
<g clip-path="url(#clip0_53_102)">
<path d="M12.5 -5.46392e-07C10.0277 -6.54459e-07 7.61098 0.733111 5.55537 2.10663C3.49976 3.48015 1.8976 5.43238 0.951505 7.71646C0.0054088 10.0005 -0.242133 12.5139 0.240182 14.9386C0.722497 17.3634 1.91301 19.5907 3.66116 21.3388C5.40932 23.087 7.63661 24.2775 10.0614 24.7598C12.4861 25.2421 14.9995 24.9946 17.2835 24.0485C19.5676 23.1024 21.5199 21.5002 22.8934 19.4446C24.2669 17.389 25 14.9723 25 12.5C24.9964 9.18589 23.6783 6.00855 21.3349 3.66512C18.9914 1.3217 15.8141 0.00358406 12.5 -5.46392e-07V-5.46392e-07ZM12.5 22.9167C10.4398 22.9167 8.42582 22.3057 6.71281 21.1611C4.9998 20.0165 3.66466 18.3897 2.87625 16.4863C2.08784 14.5829 1.88155 12.4884 2.28348 10.4678C2.68541 8.44717 3.67751 6.5911 5.1343 5.1343C6.5911 3.67751 8.44717 2.68542 10.4678 2.28349C12.4884 1.88156 14.5829 2.08784 16.4863 2.87625C18.3897 3.66467 20.0165 4.9998 21.1611 6.71281C22.3057 8.42582 22.9167 10.4398 22.9167 12.5C22.9136 15.2617 21.8152 17.9095 19.8623 19.8623C17.9095 21.8152 15.2617 22.9136 12.5 22.9167Z" fill="#564D4E"/>
<path d="M12.5 16.6667C11.7375 16.6674 11.0011 16.3888 10.4302 15.8833C10.0896 15.5802 9.76667 15.2854 9.55521 15.0739L6.5625 12.1323C6.45847 12.0381 6.37455 11.9238 6.31577 11.7964C6.25698 11.669 6.22456 11.531 6.22043 11.3907C6.21631 11.2504 6.24057 11.1108 6.29176 10.9801C6.34295 10.8494 6.42002 10.7305 6.51834 10.6303C6.61665 10.5302 6.73419 10.4509 6.86389 10.3974C6.99359 10.3438 7.13278 10.3169 7.27311 10.3185C7.41343 10.32 7.552 10.3499 7.68049 10.4063C7.80898 10.4628 7.92475 10.5446 8.02084 10.6469L11.0208 13.5937C11.2167 13.7885 11.5083 14.0531 11.8115 14.3229C12.0018 14.4908 12.2468 14.5834 12.5005 14.5834C12.7543 14.5834 12.9993 14.4908 13.1896 14.3229C13.4917 14.0542 13.7833 13.7896 13.9729 13.601L16.9792 10.6469C17.0753 10.5446 17.191 10.4628 17.3195 10.4063C17.448 10.3499 17.5866 10.32 17.7269 10.3185C17.8672 10.3169 18.0064 10.3438 18.1361 10.3974C18.2658 10.4509 18.3834 10.5302 18.4817 10.6303C18.58 10.7305 18.6571 10.8494 18.7083 10.9801C18.7594 11.1108 18.7837 11.2504 18.7796 11.3907C18.7755 11.531 18.743 11.669 18.6842 11.7964C18.6255 11.9238 18.5415 12.0381 18.4375 12.1323L15.4385 15.0792C15.2302 15.2875 14.9104 15.5792 14.5708 15.8802C14.0003 16.3873 13.2633 16.6671 12.5 16.6667Z" fill="#564D4E"/>
</g>
<defs>
<clipPath id="clip0_53_102">
<rect width="25" height="25" fill="white" transform="translate(25) rotate(90)"/>
</clipPath>
</defs>
</svg>
