<svg width="25" height="25" viewBox="0 0 25 25" fill="none" xmlns="http://www.w3.org/2000/svg">
<path fill-rule="evenodd" clip-rule="evenodd" d="M11.5508 0.0662239C7.70746 0.36168 4.16631 2.44791 2.04896 5.66413C-1.28695 10.7313 -0.477821 17.5283 3.95375 21.6646C5.70023 23.2947 7.90116 24.4018 10.2869 24.85C11.0761 24.9984 13.2174 25.0507 14.079 24.9427C17.1196 24.5617 20.0943 22.9461 22.0273 20.6257C24.5818 17.5594 25.5511 13.6385 24.6966 9.82899C23.5947 4.9173 19.7275 1.18004 14.77 0.235967C14.2753 0.141767 12.616 -0.0198907 12.3688 0.00201801C12.3078 0.0074779 11.9397 0.0363673 11.5508 0.0662239ZM8.92706 6.77256C9.01009 6.81458 9.84762 7.6149 10.7883 8.55103L12.4985 10.2531L14.2446 8.51392C15.3772 7.38586 16.058 6.75818 16.1821 6.72764C16.4986 6.64968 16.7386 6.80912 17.5411 7.63011C18.6756 8.79092 18.7479 8.56264 16.5457 10.7707L14.785 12.5361L16.5457 14.3037L18.3064 16.0714V16.3739C18.3064 16.6682 18.284 16.699 17.4942 17.487C16.6475 18.3318 16.4451 18.4523 16.1073 18.3124C16.0019 18.2687 15.1465 17.4635 14.2064 16.5231L12.4971 14.8132L10.7928 16.5221C9.85544 17.4621 9.00117 18.2673 8.89451 18.3114C8.55433 18.4524 8.35331 18.333 7.50541 17.487C6.71384 16.6972 6.69317 16.6688 6.69317 16.3717V16.0669L8.45445 14.3013L10.2158 12.5355L8.45445 10.7707L6.69317 9.00586V8.70487C6.69317 8.41633 6.72241 8.37396 7.40172 7.67966C8.34682 6.71367 8.56007 6.58678 8.92706 6.77256Z" fill="#5B5B5B"/>
</svg>
