<svg width="18" height="18" viewBox="0 0 18 18" fill="none" xmlns="http://www.w3.org/2000/svg">
<g clip-path="url(#clip0_192_363)">
<path fill-rule="evenodd" clip-rule="evenodd" d="M3.99987 1.51677C5.47991 0.527841 7.21997 0 9 0C11.3862 0.00258081 13.6738 0.951621 15.3611 2.63889C17.0484 4.32616 17.9974 6.61384 18 9C18 10.78 17.4722 12.5201 16.4832 14.0001C15.4943 15.4802 14.0887 16.6337 12.4442 17.3149C10.7996 17.9961 8.99002 18.1743 7.24419 17.8271C5.49836 17.4798 3.89472 16.6226 2.63604 15.364C1.37737 14.1053 0.520204 12.5016 0.172937 10.7558C-0.17433 9.00998 0.00389957 7.20038 0.685088 5.55585C1.36628 3.91131 2.51983 2.50571 3.99987 1.51677ZM4.83323 15.236C6.0666 16.0601 7.51664 16.5 9 16.5C10.9885 16.4978 12.8948 15.7069 14.3009 14.3009C15.7069 12.8948 16.4978 10.9885 16.5 9C16.5 7.51664 16.0601 6.06659 15.236 4.83322C14.4119 3.59985 13.2406 2.63856 11.8701 2.0709C10.4997 1.50325 8.99168 1.35472 7.53683 1.64411C6.08197 1.9335 4.7456 2.64781 3.6967 3.6967C2.64781 4.74559 1.9335 6.08196 1.64411 7.53682C1.35473 8.99168 1.50325 10.4997 2.07091 11.8701C2.63857 13.2406 3.59986 14.4119 4.83323 15.236ZM6 8C5.44772 8 5 8.44771 5 9C5 9.55229 5.44772 10 6 10H12C12.5523 10 13 9.55229 13 9C13 8.44771 12.5523 8 12 8H6Z" fill="#E92323"/>
</g>
<defs>
<clipPath id="clip0_192_363">
<rect width="18" height="18" fill="white"/>
</clipPath>
</defs>
</svg>
