<svg width="10" height="10" viewBox="0 0 10 10" fill="none" xmlns="http://www.w3.org/2000/svg">
<path fill-rule="evenodd" clip-rule="evenodd" d="M2.08333 10L7.91667 10C8.4692 10 8.9991 9.78051 9.38981 9.38981C9.78051 8.9991 10 8.4692 10 7.91667L10 2.08333C10 1.80975 9.94611 1.53884 9.84142 1.28608C9.73672 1.03331 9.58326 0.80365 9.38981 0.610194C8.99911 0.219494 8.4692 -1.33827e-07 7.91667 -1.82131e-07L2.08333 -6.92097e-07C1.80975 -7.16015e-07 1.53884 0.0538866 1.28608 0.158584C1.03332 0.263281 0.803651 0.416739 0.610195 0.610193C0.41674 0.803649 0.263283 1.03331 0.158585 1.28608C0.0538881 1.53884 7.16015e-07 1.80975 6.92097e-07 2.08333L1.82131e-07 7.91667C1.58213e-07 8.19025 0.0538875 8.46116 0.158585 8.71392C0.263282 8.96668 0.41674 9.19635 0.610194 9.3898C0.80365 9.58326 1.03331 9.73672 1.28608 9.84141C1.53884 9.94611 1.80975 10 2.08333 10ZM0.833335 2.08333C0.833335 1.75181 0.96503 1.43387 1.19945 1.19945C1.43387 0.965029 1.75181 0.833333 2.08333 0.833333L7.91667 0.833334C8.24819 0.833334 8.56613 0.96503 8.80055 1.19945C9.03497 1.43387 9.16667 1.75181 9.16667 2.08333L9.16667 7.91667C9.16667 8.24819 9.03497 8.56613 8.80055 8.80055C8.56613 9.03497 8.24819 9.16667 7.91667 9.16667L2.08333 9.16667C1.75181 9.16667 1.43387 9.03497 1.19945 8.80055C0.96503 8.56613 0.833334 8.24819 0.833334 7.91667L0.833335 2.08333ZM5.035 2.50002C5.09683 2.49999 5.15727 2.5183 5.20869 2.55264C5.26011 2.58698 5.30018 2.63579 5.32385 2.69291C5.34751 2.75003 5.3537 2.81289 5.34163 2.87353C5.32956 2.93416 5.29978 2.98986 5.25604 3.03356L3.65771 4.63169C3.60933 4.68005 3.57095 4.73747 3.54477 4.80067C3.51859 4.86387 3.50511 4.93161 3.50511 5.00002C3.50511 5.06843 3.51859 5.13617 3.54477 5.19937C3.57095 5.26257 3.60933 5.31999 3.65771 5.36835L5.25604 6.96648C5.28507 6.99551 5.3081 7.02997 5.32381 7.06789C5.33951 7.10582 5.3476 7.14647 5.3476 7.18752C5.3476 7.27043 5.31467 7.34994 5.25604 7.40856C5.19742 7.46719 5.11791 7.50012 5.035 7.50012C4.99395 7.50012 4.9533 7.49203 4.91537 7.47632C4.87745 7.46061 4.84299 7.43759 4.81396 7.40856L3.21583 5.81023C3.00096 5.59534 2.88025 5.3039 2.88025 5.00002C2.88025 4.69613 3.00096 4.4047 3.21583 4.18981L4.81396 2.59148C4.84299 2.56246 4.87746 2.53945 4.91538 2.52376C4.95331 2.50807 4.99396 2.5 5.035 2.50002ZM7.19715 2.55271C7.14577 2.51836 7.08535 2.50002 7.02354 2.5C6.9825 2.49998 6.94185 2.50805 6.90392 2.52374C6.866 2.53944 6.83153 2.56245 6.8025 2.59146L4.90958 4.48459C4.77324 4.62151 4.69669 4.80688 4.69669 5.00011C4.69669 5.19334 4.77324 5.3787 4.90958 5.51563L6.8025 7.40855C6.86112 7.46714 6.94062 7.50005 7.02351 7.50003C7.1064 7.50001 7.18588 7.46707 7.24448 7.40844C7.30308 7.34982 7.33598 7.27032 7.33596 7.18743C7.33594 7.10454 7.303 7.02506 7.24438 6.96646L5.35167 5.07375C5.34197 5.06408 5.33427 5.05258 5.32902 5.03993C5.32377 5.02727 5.32106 5.0137 5.32106 5C5.32106 4.9863 5.32377 4.97273 5.32902 4.96008C5.33427 4.94742 5.34197 4.93593 5.35167 4.92625L7.24438 3.03354C7.2881 2.98985 7.31788 2.93418 7.32995 2.87356C7.34203 2.81294 7.33586 2.7501 7.31222 2.69299C7.28858 2.63588 7.24854 2.58706 7.19715 2.55271Z" fill="#857E7F"/>
</svg>
