<svg width="10" height="10" viewBox="0 0 10 10" fill="none" xmlns="http://www.w3.org/2000/svg" transform="rotate(90deg)">
<path fill-rule="evenodd" clip-rule="evenodd" d="M7.91667 0H2.08333C1.5308 0 1.0009 0.219493 0.610194 0.610194C0.219493 1.0009 0 1.5308 0 2.08333V7.91667C0 8.19025 0.053887 8.46116 0.158584 8.71392C0.263282 8.96669 0.416739 9.19635 0.610194 9.38981C1.0009 9.78051 1.5308 10 2.08333 10H7.91667C8.19025 10 8.46116 9.94611 8.71392 9.84142C8.96669 9.73672 9.19635 9.58326 9.38981 9.38981C9.58326 9.19635 9.73672 8.96669 9.84142 8.71392C9.94611 8.46116 10 8.19025 10 7.91667V2.08333C10 1.80975 9.94611 1.53884 9.84142 1.28608C9.73672 1.03331 9.58326 0.80365 9.38981 0.610194C9.19635 0.416739 8.96669 0.263282 8.71392 0.158584C8.46116 0.053887 8.19025 0 7.91667 0ZM9.16667 7.91667C9.16667 8.24819 9.03497 8.56613 8.80055 8.80055C8.56613 9.03497 8.24819 9.16667 7.91667 9.16667H2.08333C1.75181 9.16667 1.43387 9.03497 1.19945 8.80055C0.965029 8.56613 0.833333 8.24819 0.833333 7.91667V2.08333C0.833333 1.75181 0.965029 1.43387 1.19945 1.19945C1.43387 0.965029 1.75181 0.833333 2.08333 0.833333H7.91667C8.24819 0.833333 8.56613 0.965029 8.80055 1.19945C9.03497 1.43387 9.16667 1.75181 9.16667 2.08333V7.91667ZM4.965 7.49998C4.90317 7.50001 4.84273 7.48169 4.79131 7.44736C4.73989 7.41302 4.69982 7.36421 4.67615 7.30709C4.65249 7.24997 4.6463 7.18711 4.65837 7.12647C4.67044 7.06584 4.70023 7.01014 4.74396 6.96644L6.34229 5.36831C6.39067 5.31995 6.42905 5.26252 6.45523 5.19933C6.48141 5.13613 6.49489 5.06839 6.49489 4.99998C6.49489 4.93157 6.48141 4.86383 6.45523 4.80063C6.42905 4.73743 6.39067 4.68001 6.34229 4.63165L4.74396 3.03352C4.71493 3.00449 4.6919 2.97003 4.67619 2.93211C4.66049 2.89418 4.6524 2.85353 4.6524 2.81248C4.6524 2.72957 4.68533 2.65006 4.74396 2.59144C4.80258 2.53281 4.88209 2.49988 4.965 2.49988C5.00605 2.49988 5.0467 2.50797 5.08463 2.52367C5.12255 2.53938 5.15701 2.56241 5.18604 2.59144L6.78417 4.18977C6.99904 4.40466 7.11975 4.69609 7.11975 4.99998C7.11975 5.30386 6.99904 5.5953 6.78417 5.81019L5.18604 7.40852C5.15701 7.43753 5.12254 7.46055 5.08462 7.47624C5.04669 7.49193 5.00604 7.5 4.965 7.49998ZM2.80285 7.44729C2.85423 7.48164 2.91465 7.49998 2.97646 7.5C3.0175 7.50002 3.05815 7.49195 3.09608 7.47626C3.134 7.46056 3.16847 7.43755 3.1975 7.40854L5.09042 5.51541C5.22676 5.37849 5.30331 5.19312 5.30331 4.99989C5.30331 4.80666 5.22676 4.6213 5.09042 4.48437L3.1975 2.59145C3.13888 2.53286 3.05938 2.49995 2.97649 2.49997C2.8936 2.49999 2.81412 2.53293 2.75552 2.59156C2.69692 2.65018 2.66402 2.72968 2.66404 2.81257C2.66406 2.89546 2.697 2.97494 2.75563 3.03354L4.64833 4.92625C4.65803 4.93592 4.66573 4.94742 4.67098 4.96007C4.67623 4.97273 4.67894 4.98629 4.67894 5C4.67894 5.0137 4.67623 5.02726 4.67098 5.03992C4.66573 5.05258 4.65803 5.06407 4.64833 5.07375L2.75563 6.96646C2.71191 7.01015 2.68212 7.06582 2.67005 7.12644C2.65797 7.18706 2.66414 7.2499 2.68778 7.30701C2.71142 7.36412 2.75146 7.41294 2.80285 7.44729Z" fill="#857E7F"/>
</svg>
