<svg width="10" height="10" viewBox="0 0 10 10" fill="none" xmlns="http://www.w3.org/2000/svg">
<path d="M0 7.91667V2.08333C0.000661607 1.531 0.220367 1.00148 0.610925 0.610925C1.00148 0.220367 1.531 0.000661607 2.08333 0L7.91667 0C8.469 0.000661607 8.99852 0.220367 9.38908 0.610925C9.77963 1.00148 9.99934 1.531 10 2.08333V7.91667C9.99934 8.469 9.77963 8.99852 9.38908 9.38908C8.99852 9.77963 8.469 9.99934 7.91667 10H2.08333C1.531 9.99934 1.00148 9.77963 0.610925 9.38908C0.220367 8.99852 0.000661607 8.469 0 7.91667H0ZM9.16667 2.08333C9.16667 1.75181 9.03497 1.43387 8.80055 1.19945C8.56613 0.965029 8.24819 0.833333 7.91667 0.833333H2.08333C1.75181 0.833333 1.43387 0.965029 1.19945 1.19945C0.965029 1.43387 0.833333 1.75181 0.833333 2.08333V7.91667C0.833333 8.24819 0.965029 8.56613 1.19945 8.80055C1.43387 9.03497 1.75181 9.16667 2.08333 9.16667H7.91667C8.24819 9.16667 8.56613 9.03497 8.80055 8.80055C9.03497 8.56613 9.16667 8.24819 9.16667 7.91667V2.08333ZM3.33333 5C3.33302 4.695 3.44449 4.40045 3.64667 4.17208C3.76792 4.03583 3.88583 3.90667 3.97042 3.82208L5.14708 2.625C5.2255 2.55133 5.32937 2.51085 5.43696 2.51203C5.54455 2.51322 5.64751 2.55597 5.72428 2.63135C5.80106 2.70673 5.8457 2.80888 5.84886 2.91643C5.85203 3.02397 5.81346 3.12857 5.74125 3.20833L4.5625 4.40833C4.48458 4.48667 4.37875 4.60333 4.27083 4.72458C4.20369 4.8007 4.16664 4.89871 4.16664 5.00021C4.16664 5.10171 4.20369 5.19971 4.27083 5.27583C4.37833 5.39667 4.48417 5.51333 4.55958 5.58917L5.74125 6.79167C5.81346 6.87142 5.85203 6.97603 5.84886 7.08357C5.8457 7.19112 5.80106 7.29327 5.72428 7.36865C5.64751 7.44403 5.54455 7.48678 5.43696 7.48797C5.32937 7.48915 5.2255 7.44867 5.14708 7.375L3.96833 6.17583C3.885 6.0925 3.76833 5.96458 3.64792 5.82875C3.445 5.60041 3.33304 5.30548 3.33333 5Z" fill="#857E7F"/>
</svg>
