<svg width="10" height="10" viewBox="0 0 10 10" fill="none" xmlns="http://www.w3.org/2000/svg">
<path d="M10 2.08333L10 7.91667C9.99934 8.469 9.77963 8.99852 9.38907 9.38908C8.99852 9.77963 8.469 9.99934 7.91667 10L2.08333 10C1.531 9.99934 1.00148 9.77963 0.610925 9.38908C0.220367 8.99852 0.000661716 8.469 -1.82131e-07 7.91667L-6.92097e-07 2.08333C0.00066111 1.531 0.220367 1.00148 0.610924 0.610926C1.00148 0.220368 1.531 0.00066259 2.08333 6.92097e-07L7.91667 1.82131e-07C8.469 0.000661984 8.99852 0.220368 9.38907 0.610925C9.77963 1.00148 9.99934 1.531 10 2.08333V2.08333ZM0.833334 7.91667C0.833334 8.24819 0.96503 8.56613 1.19945 8.80055C1.43387 9.03497 1.75181 9.16667 2.08333 9.16667L7.91667 9.16667C8.24819 9.16667 8.56613 9.03497 8.80055 8.80055C9.03497 8.56613 9.16667 8.24819 9.16667 7.91667L9.16667 2.08333C9.16667 1.75181 9.03497 1.43387 8.80055 1.19945C8.56613 0.96503 8.24819 0.833334 7.91667 0.833334L2.08333 0.833335C1.75181 0.833335 1.43387 0.96503 1.19945 1.19945C0.965029 1.43387 0.833333 1.75181 0.833333 2.08333L0.833334 7.91667ZM6.66667 5C6.66698 5.305 6.55551 5.59955 6.35333 5.82792C6.23208 5.96417 6.11417 6.09333 6.02958 6.17792L4.85292 7.375C4.7745 7.44867 4.67063 7.48915 4.56304 7.48797C4.45545 7.48678 4.35249 7.44403 4.27572 7.36865C4.19894 7.29328 4.1543 7.19112 4.15114 7.08357C4.14797 6.97603 4.18654 6.87143 4.25875 6.79167L5.4375 5.59167C5.51542 5.51333 5.62125 5.39667 5.72917 5.27542C5.79631 5.1993 5.83336 5.10129 5.83336 4.99979C5.83336 4.89829 5.79631 4.80029 5.72917 4.72417C5.62167 4.60333 5.51583 4.48667 5.44042 4.41083L4.25875 3.20833C4.18653 3.12858 4.14797 3.02397 4.15113 2.91643C4.1543 2.80888 4.19894 2.70673 4.27572 2.63135C4.35249 2.55597 4.45545 2.51322 4.56304 2.51203C4.67063 2.51085 4.7745 2.55133 4.85292 2.625L6.03167 3.82417C6.115 3.9075 6.23167 4.03542 6.35208 4.17125C6.555 4.39959 6.66696 4.69453 6.66667 5Z" fill="#857E7F"/>
</svg>
