<svg width="18" height="18" viewBox="0 0 18 18" fill="none" xmlns="http://www.w3.org/2000/svg">
<path d="M8.99998 0C7.21995 0 5.47989 0.527841 3.99985 1.51677C2.51981 2.50571 1.36625 3.91131 0.685065 5.55585C0.00387669 7.20038 -0.174353 9.00998 0.172914 10.7558C0.520181 12.5016 1.37735 14.1053 2.63602 15.364C3.89469 16.6226 5.49834 17.4798 7.24417 17.8271C8.99 18.1743 10.7996 17.9961 12.4441 17.3149C14.0887 16.6337 15.4943 15.4802 16.4832 14.0001C17.4721 12.5201 18 10.78 18 9C17.9974 6.61384 17.0484 4.32616 15.3611 2.63889C13.6738 0.951621 11.3861 0.00258081 8.99998 0V0ZM8.99998 16.5C7.51662 16.5 6.06657 16.0601 4.8332 15.236C3.59984 14.4119 2.63854 13.2406 2.07088 11.8701C1.50323 10.4997 1.3547 8.99168 1.64409 7.53682C1.93348 6.08196 2.64779 4.74559 3.69668 3.6967C4.74557 2.6478 6.08195 1.9335 7.5368 1.64411C8.99166 1.35472 10.4997 1.50325 11.8701 2.0709C13.2406 2.63856 14.4119 3.59985 15.236 4.83322C16.0601 6.06659 16.5 7.51664 16.5 9C16.4978 10.9885 15.7069 12.8948 14.3009 14.3009C12.8948 15.7069 10.9884 16.4978 8.99998 16.5ZM12.75 9C12.75 9.19891 12.671 9.38968 12.5303 9.53033C12.3897 9.67098 12.1989 9.75 12 9.75H9.74998V12C9.74998 12.1989 9.67096 12.3897 9.53031 12.5303C9.38966 12.671 9.19889 12.75 8.99998 12.75C8.80107 12.75 8.6103 12.671 8.46965 12.5303C8.329 12.3897 8.24998 12.1989 8.24998 12V9.75H5.99998C5.80107 9.75 5.6103 9.67098 5.46965 9.53033C5.329 9.38968 5.24998 9.19891 5.24998 9C5.24998 8.80109 5.329 8.61032 5.46965 8.46967C5.6103 8.32902 5.80107 8.25 5.99998 8.25H8.24998V6C8.24998 5.80109 8.329 5.61032 8.46965 5.46967C8.6103 5.32902 8.80107 5.25 8.99998 5.25C9.19889 5.25 9.38966 5.32902 9.53031 5.46967C9.67096 5.61032 9.74998 5.80109 9.74998 6V8.25H12C12.1989 8.25 12.3897 8.32902 12.5303 8.46967C12.671 8.61032 12.75 8.80109 12.75 9Z" fill="#564D4E"/>
</svg>
