<svg width="22" height="22" viewBox="0 0 22 22" fill="none" xmlns="http://www.w3.org/2000/svg">
<g clip-path="url(#clip0_308_176)">
<path d="M11 1.83364C13.456 1.84171 15.8068 2.8319 17.5283 4.58355H14.6665C14.1603 4.58355 13.7499 4.99393 13.7499 5.50018C13.7499 6.00642 14.1603 6.4168 14.6665 6.4168H18.4642C19.404 6.41629 20.1658 5.65447 20.1664 4.7146V0.916968C20.1664 0.410725 19.756 0.000343189 19.2497 0.000343189C18.7435 0.000343189 18.3331 0.410725 18.3331 0.916968V2.82176C13.8261 -1.23725 6.88204 -0.874087 2.82304 3.6329C1.23458 5.39671 0.26029 7.62771 0.0461831 9.99169C-0.000909194 10.4993 0.372435 10.949 0.880052 10.9961C0.907551 10.9986 0.935179 10.9999 0.96285 11C1.42746 11.0059 1.82022 10.6573 1.86942 10.1952C2.2923 5.46602 6.25197 1.83987 11 1.83364Z" fill="#564D4E"/>
<path d="M21.0381 11C20.5735 10.9941 20.1807 11.3427 20.1315 11.8048C19.6941 16.8412 15.2567 20.5694 10.2203 20.1319C8.04116 19.9427 6.00188 18.9793 4.47169 17.4165H7.33344C7.83969 17.4165 8.25007 17.0061 8.25007 16.4998C8.25007 15.9936 7.83969 15.5832 7.33344 15.5832H3.53581C2.5962 15.5827 1.83413 16.344 1.83362 17.2836C1.83362 17.2842 1.83362 17.2848 1.83362 17.2854V21.083C1.83362 21.5893 2.244 21.9997 2.75024 21.9997C3.25648 21.9997 3.66686 21.5893 3.66686 21.083V19.1782C8.17384 23.2372 15.1179 22.8741 19.1769 18.3671C20.7654 16.6033 21.7397 14.3723 21.9538 12.0083C22.0009 11.5007 21.6275 11.051 21.1199 11.0039C21.0927 11.0014 21.0654 11.0001 21.0381 11Z" fill="#564D4E"/>
</g>
<defs>
<clipPath id="clip0_308_176">
<rect width="22" height="22" fill="white"/>
</clipPath>
</defs>
</svg>
